<svg xmlns="http://www.w3.org/2000/svg" viewBox="0 0 568.01 560.17"><defs><style>.cls-1,.cls-3{opacity:0.05;}.cls-2,.cls-3{fill:none;stroke:#000;stroke-linecap:round;stroke-linejoin:round;stroke-width:5px;}</style></defs><title>background</title><g id="Layer_2" data-name="Layer 2"><g id="Layer_1-2" data-name="Layer 1"><g class="cls-1"><line class="cls-2" x1="197.81" y1="113.49" x2="182.56" y2="99.19"/><line class="cls-2" x1="183.03" y1="113.97" x2="197.34" y2="98.71"/></g><g class="cls-1"><line class="cls-2" x1="215.34" y1="332.93" x2="200.08" y2="318.62"/><line class="cls-2" x1="200.56" y1="333.4" x2="214.86" y2="318.15"/></g><g class="cls-1"><line class="cls-2" x1="29.75" y1="455.53" x2="14.5" y2="441.22"/><line class="cls-2" x1="14.97" y1="456" x2="29.27" y2="440.75"/></g><g class="cls-1"><line class="cls-2" x1="23.09" y1="92.61" x2="7.84" y2="78.31"/><line class="cls-2" x1="8.31" y1="93.09" x2="22.61" y2="77.84"/></g><g class="cls-1"><line class="cls-2" x1="565.51" y1="113.12" x2="550.26" y2="98.81"/><line class="cls-2" x1="550.73" y1="113.59" x2="565.03" y2="98.34"/></g><g class="cls-1"><line class="cls-2" x1="385.57" y1="190.92" x2="370.32" y2="176.62"/><line class="cls-2" x1="370.79" y1="191.4" x2="385.1" y2="176.15"/></g><g class="cls-1"><line class="cls-2" x1="459.93" y1="360.73" x2="444.68" y2="346.43"/><line class="cls-2" x1="445.15" y1="361.21" x2="459.46" y2="345.96"/></g><g class="cls-1"><line class="cls-2" x1="448.09" y1="499.06" x2="432.84" y2="484.76"/><line class="cls-2" x1="433.31" y1="499.54" x2="447.61" y2="484.29"/></g><polygon class="cls-3" points="311.15 136.39 300.65 118.22 290.18 136.4 279.7 154.57 300.68 154.55 321.65 154.54 311.15 136.39"/><polygon class="cls-3" points="276.44 358.39 265.93 340.23 255.46 358.4 244.99 376.57 265.96 376.56 286.94 376.55 276.44 358.39"/><polygon class="cls-3" points="396.78 426.56 386.28 408.4 375.81 426.57 365.33 444.75 386.3 444.73 407.28 444.72 396.78 426.56"/><polygon class="cls-3" points="466 287.13 471.42 266.86 451.16 272.31 430.9 277.75 445.74 292.57 460.58 307.4 466 287.13"/><polygon class="cls-3" points="121.07 51.84 126.49 31.57 106.24 37.02 85.97 42.46 100.82 57.28 115.66 72.11 121.07 51.84"/><polygon class="cls-3" points="106.71 489.75 112.13 469.48 91.87 474.93 71.61 480.37 86.45 495.19 101.29 510.02 106.71 489.75"/><polygon class="cls-3" points="487.25 74.48 505.41 63.98 487.24 53.51 469.06 43.03 469.08 64 469.09 84.98 487.25 74.48"/><polygon class="cls-3" points="106.24 284.03 124.41 273.53 106.23 263.06 88.06 252.58 88.08 273.56 88.09 294.53 106.24 284.03"/><path class="cls-3" d="M346.6,249.69a15.92,15.92,0,1,1-15.91-15.91A15.91,15.91,0,0,1,346.6,249.69Z"/><path class="cls-3" d="M266.2,72.11a15.92,15.92,0,1,1-15.92-15.92A15.92,15.92,0,0,1,266.2,72.11Z"/><path class="cls-3" d="M276.35,541.76a15.91,15.91,0,1,1-15.91-15.92A15.91,15.91,0,0,1,276.35,541.76Z"/><path class="cls-3" d="M318.91,518a15.92,15.92,0,0,1,31.83,0"/><path class="cls-3" d="M191.9,273.56a15.92,15.92,0,1,1,31.83,0"/><path class="cls-3" d="M24.48,144.35a15.85,15.85,0,1,1,31.69,0"/><path class="cls-3" d="M425.6,170.41a15.84,15.84,0,1,1,0-31.68"/><path class="cls-3" d="M42.42,541.68a15.84,15.84,0,1,1,0-31.68"/><path class="cls-3" d="M213.18,35.59a15.84,15.84,0,1,1,0-31.68"/><path class="cls-3" d="M50.38,374.31A15.92,15.92,0,1,1,34.47,358.4,15.91,15.91,0,0,1,50.38,374.31Z"/><path class="cls-3" d="M541.1,392.49a15.91,15.91,0,1,1-15.91-15.92A15.91,15.91,0,0,1,541.1,392.49Z"/><rect class="cls-3" x="497.09" y="138.74" width="31.65" height="31.65"/><rect class="cls-3" x="139.19" y="154.57" width="31.65" height="31.65"/><rect class="cls-3" x="137.61" y="356.66" width="31.65" height="31.65"/><rect class="cls-3" x="497.09" y="510.02" width="31.65" height="31.65"/><rect class="cls-3" x="365.78" y="3.92" width="31.65" height="31.65"/><g class="cls-1"><path class="cls-2" d="M320.29,325.78c-6.91,0-5.72-12.26-14.53-12.26"/><path class="cls-2" d="M349.36,325.78c-6.91,0-5.71-12.26-14.53-12.26"/><path class="cls-2" d="M320.29,325.78c6.91,0,5.72-12.26,14.54-12.26"/><path class="cls-2" d="M349.36,325.78c6.91,0,5.72-12.26,14.54-12.26"/></g><g class="cls-1"><path class="cls-2" d="M403.11,554c-6.91,0-5.72-12.25-14.54-12.25"/><path class="cls-2" d="M432.18,554c-6.91,0-5.72-12.25-14.53-12.25"/><path class="cls-2" d="M403.11,554c6.91,0,5.72-12.25,14.54-12.25"/><path class="cls-2" d="M432.18,554c6.91,0,5.72-12.25,14.54-12.25"/></g><g class="cls-1"><path class="cls-2" d="M442.75,225c-6.91,0-5.72-12.25-14.53-12.25"/><path class="cls-2" d="M471.83,225c-6.91,0-5.72-12.25-14.54-12.25"/><path class="cls-2" d="M442.75,225c6.91,0,5.72-12.25,14.54-12.25"/><path class="cls-2" d="M471.83,225c6.91,0,5.71-12.25,14.53-12.25"/></g><g class="cls-1"><path class="cls-2" d="M38.47,210.16c-6.91,0-5.72-12.25-14.53-12.25"/><path class="cls-2" d="M67.54,210.16c-6.91,0-5.71-12.25-14.53-12.25"/><path class="cls-2" d="M38.47,210.16c6.91,0,5.72-12.25,14.54-12.25"/><path class="cls-2" d="M67.54,210.16c6.91,0,5.72-12.25,14.54-12.25"/></g><g class="cls-1"><path class="cls-2" d="M322.7,46.11c0,6.91-12.26,5.72-12.26,14.53"/><path class="cls-2" d="M322.7,17c0,6.91-12.26,5.71-12.26,14.53"/><path class="cls-2" d="M322.7,46.11c0-6.91-12.26-5.72-12.26-14.54"/><path class="cls-2" d="M322.7,17c0-6.91-12.26-5.72-12.26-14.54"/></g><g class="cls-1"><path class="cls-2" d="M233.56,198.18c0,6.91-12.26,5.72-12.26,14.54"/><path class="cls-2" d="M233.56,169.11c0,6.91-12.26,5.72-12.26,14.53"/><path class="cls-2" d="M233.56,198.18c0-6.91-12.26-5.72-12.26-14.54"/><path class="cls-2" d="M233.56,169.11c0-6.91-12.26-5.72-12.26-14.54"/></g><g class="cls-1"><path class="cls-2" d="M475.19,441.11c0,6.91-12.25,5.72-12.25,14.54"/><path class="cls-2" d="M475.19,412c0,6.91-12.25,5.71-12.25,14.53"/><path class="cls-2" d="M475.19,441.11c0-6.91-12.25-5.72-12.25-14.54"/><path class="cls-2" d="M475.19,412c0-6.91-12.25-5.72-12.25-14.54"/></g><g class="cls-1"><path class="cls-2" d="M175.39,464c0,6.91-12.26,5.72-12.26,14.53"/><path class="cls-2" d="M175.39,435c0,6.91-12.26,5.71-12.26,14.53"/><path class="cls-2" d="M175.39,464c0-6.91-12.26-5.72-12.26-14.54"/><path class="cls-2" d="M175.39,435c0-6.91-12.26-5.72-12.26-14.54"/></g><line class="cls-3" x1="355.13" y1="358.4" x2="391" y2="358.4"/><line class="cls-3" x1="2.5" y1="254.75" x2="38.37" y2="254.75"/><line class="cls-3" x1="357.81" y1="88.02" x2="393.68" y2="88.02"/><line class="cls-3" x1="499.2" y1="7.07" x2="535.07" y2="7.07"/><line class="cls-3" x1="145.5" y1="541.68" x2="181.37" y2="541.68"/><line class="cls-3" x1="237.6" y1="472.39" x2="262.96" y2="447.02"/><line class="cls-3" x1="27.64" y1="32.43" x2="53.01" y2="7.07"/><line class="cls-3" x1="517.13" y1="292.44" x2="542.49" y2="267.08"/><path class="cls-3" d="M329.08,443.32a6.27,6.27,0,1,1,2-8.64A6.27,6.27,0,0,1,329.08,443.32Z"/><path class="cls-3" d="M279.69,270.91a6.27,6.27,0,1,1,2-8.64A6.27,6.27,0,0,1,279.69,270.91Z"/><path class="cls-3" d="M53.8,323.93a6.27,6.27,0,1,1,2-8.64A6.27,6.27,0,0,1,53.8,323.93Z"/><path class="cls-3" d="M118,126.64a6.26,6.26,0,1,1,2-8.64A6.25,6.25,0,0,1,118,126.64Z"/><path class="cls-3" d="M462.8,123.53a6.27,6.27,0,1,1,2-8.64A6.27,6.27,0,0,1,462.8,123.53Z"/><path class="cls-3" d="M551.35,346.83a6.26,6.26,0,1,1,2-8.64A6.27,6.27,0,0,1,551.35,346.83Z"/></g></g></svg>